<mxfile host="app.diagrams.net" modified="2024-07-09T14:37:53.277Z" agent="Mozilla/5.0 (Windows NT 10.0; Win64; x64) AppleWebKit/537.36 (KHTML, like Gecko) Chrome/126.0.0.0 Safari/537.36" etag="YeI6UDe7sikETVDVGsgm" version="24.4.4" type="device">
  <diagram name="Page-1" id="EFJrntQRO9CBf9CFSAvQ">
    <mxGraphModel dx="2228" dy="1116" grid="1" gridSize="10" guides="1" tooltips="1" connect="1" arrows="1" fold="1" page="1" pageScale="1" pageWidth="850" pageHeight="1100" math="0" shadow="0">
      <root>
        <mxCell id="0" />
        <mxCell id="1" parent="0" />
        <mxCell id="RXPgD_uq9TEfxg7R3vYd-7" style="edgeStyle=orthogonalEdgeStyle;rounded=0;orthogonalLoop=1;jettySize=auto;html=1;entryX=0;entryY=0.5;entryDx=0;entryDy=0;" edge="1" parent="1" source="RXPgD_uq9TEfxg7R3vYd-1" target="RXPgD_uq9TEfxg7R3vYd-2">
          <mxGeometry relative="1" as="geometry" />
        </mxCell>
        <mxCell id="RXPgD_uq9TEfxg7R3vYd-8" style="edgeStyle=orthogonalEdgeStyle;rounded=0;orthogonalLoop=1;jettySize=auto;html=1;entryX=0;entryY=0.5;entryDx=0;entryDy=0;" edge="1" parent="1" target="RXPgD_uq9TEfxg7R3vYd-3">
          <mxGeometry relative="1" as="geometry">
            <mxPoint x="185" y="230" as="sourcePoint" />
            <mxPoint x="438" y="340" as="targetPoint" />
            <Array as="points">
              <mxPoint x="318" y="230" />
              <mxPoint x="318" y="340" />
              <mxPoint x="320" y="340" />
              <mxPoint x="320" y="650" />
            </Array>
          </mxGeometry>
        </mxCell>
        <mxCell id="RXPgD_uq9TEfxg7R3vYd-1" value="&lt;b&gt;&lt;font style=&quot;font-size: 19px;&quot;&gt;Source&amp;nbsp;&lt;/font&gt;&lt;/b&gt;" style="rounded=0;whiteSpace=wrap;html=1;" vertex="1" parent="1">
          <mxGeometry x="67" y="200" width="120" height="60" as="geometry" />
        </mxCell>
        <mxCell id="RXPgD_uq9TEfxg7R3vYd-2" value="&lt;b&gt;&lt;font style=&quot;font-size: 24px;&quot;&gt;Streamlit&lt;/font&gt;&lt;/b&gt;" style="rounded=1;whiteSpace=wrap;html=1;gradientColor=#66FF66;" vertex="1" parent="1">
          <mxGeometry x="447.5" y="30" width="192.5" height="100" as="geometry" />
        </mxCell>
        <mxCell id="RXPgD_uq9TEfxg7R3vYd-3" value="&lt;b&gt;&lt;font style=&quot;font-size: 22px;&quot;&gt;Jupyter notebook&lt;/font&gt;&lt;/b&gt;" style="rounded=1;whiteSpace=wrap;html=1;gradientColor=#66FF66;" vertex="1" parent="1">
          <mxGeometry x="450" y="580" width="200" height="100" as="geometry" />
        </mxCell>
        <mxCell id="RXPgD_uq9TEfxg7R3vYd-9" value="&lt;b&gt;&lt;font style=&quot;font-size: 25px;&quot;&gt;API&lt;/font&gt;&lt;/b&gt;" style="text;strokeColor=none;align=center;fillColor=none;html=1;verticalAlign=middle;whiteSpace=wrap;rounded=0;" vertex="1" parent="1">
          <mxGeometry x="232" y="200" width="60" height="30" as="geometry" />
        </mxCell>
        <mxCell id="RXPgD_uq9TEfxg7R3vYd-10" value="&lt;div style=&quot;line-height: 100%;&quot;&gt;&lt;h2 style=&quot;line-height: 100%;&quot;&gt;&lt;span style=&quot;background-color: initial;&quot;&gt;&lt;font style=&quot;font-size: 23px;&quot;&gt;the processes :&lt;/font&gt;&lt;/span&gt;&lt;/h2&gt;&lt;h2 style=&quot;line-height: 100%;&quot;&gt;&lt;ul style=&quot;line-height: 100%;&quot;&gt;&lt;li&gt;&lt;span style=&quot;background-color: initial;&quot;&gt;&lt;font style=&quot;font-size: 23px;&quot;&gt;&amp;nbsp;display the retreived&amp;nbsp; &amp;nbsp; &amp;nbsp; &amp;nbsp; &amp;nbsp; &amp;nbsp; &amp;nbsp; &amp;nbsp; &amp;nbsp; &amp;nbsp; &amp;nbsp; &amp;nbsp; &amp;nbsp; &amp;nbsp; &amp;nbsp; &amp;nbsp; &amp;nbsp; &amp;nbsp; &amp;nbsp; &amp;nbsp; &amp;nbsp; &amp;nbsp; &amp;nbsp; &amp;nbsp; &amp;nbsp; &amp;nbsp; data in an interactive&amp;nbsp; &amp;nbsp; &amp;nbsp; &amp;nbsp; &amp;nbsp; &amp;nbsp; &amp;nbsp; &amp;nbsp; &amp;nbsp; &amp;nbsp; &amp;nbsp; &amp;nbsp; &amp;nbsp; &amp;nbsp; &amp;nbsp; &amp;nbsp; &amp;nbsp; &amp;nbsp; &amp;nbsp; &amp;nbsp; &amp;nbsp; &amp;nbsp; &amp;nbsp; &amp;nbsp; &amp;nbsp; &amp;nbsp; &lt;/font&gt;&lt;/span&gt;&amp;nbsp;way&lt;/li&gt;&lt;/ul&gt;&lt;div&gt;&lt;br&gt;&lt;/div&gt;&lt;div&gt;&lt;ul&gt;&lt;li&gt;&lt;br&gt;&lt;/li&gt;&lt;/ul&gt;&lt;/div&gt;&lt;/h2&gt;&lt;/div&gt;" style="whiteSpace=wrap;html=1;aspect=fixed;align=left;horizontal=1;verticalAlign=top;" vertex="1" parent="1">
          <mxGeometry x="431" y="145.25" width="320" height="320" as="geometry" />
        </mxCell>
        <mxCell id="RXPgD_uq9TEfxg7R3vYd-11" value="&lt;font style=&quot;font-size: 27px;&quot;&gt;Processes:&lt;/font&gt;&lt;div style=&quot;line-height: 250%;&quot;&gt;&lt;ul style=&quot;line-height: 250%;&quot;&gt;&lt;li&gt;&lt;font style=&quot;font-size: 27px;&quot;&gt;Gets a copy of the retrieved data&lt;/font&gt;&amp;nbsp;&lt;/li&gt;&lt;li&gt;&lt;font style=&quot;font-size: 28px;&quot;&gt;does some preprocessing&amp;nbsp;&amp;nbsp;&lt;/font&gt;&lt;/li&gt;&lt;/ul&gt;&lt;/div&gt;" style="whiteSpace=wrap;html=1;aspect=fixed;fontStyle=1;verticalAlign=top;align=left;" vertex="1" parent="1">
          <mxGeometry x="431" y="700" width="320" height="320" as="geometry" />
        </mxCell>
      </root>
    </mxGraphModel>
  </diagram>
</mxfile>
